<svg width="25" height="25" viewBox="0 0 25 25" fill="none" xmlns="http://www.w3.org/2000/svg">
<g clip-path="url(#clip0)">
<path d="M14.711 12.5007L24.5419 2.66978C25.1527 2.05951 25.1527 1.06933 24.5419 0.459066C23.9311 -0.15172 22.942 -0.15172 22.3312 0.459066L12.5003 10.29L2.6688 0.459066C2.05801 -0.15172 1.06888 -0.15172 0.458089 0.459066C-0.152696 1.06933 -0.152696 2.05951 0.458089 2.66978L10.2895 12.5007L0.458089 22.3317C-0.152696 22.9419 -0.152696 23.9321 0.458089 24.5424C0.763482 24.8472 1.16372 24.9999 1.56344 24.9999C1.96317 24.9999 2.36341 24.8472 2.6688 24.5418L12.5003 14.7109L22.3312 24.5418C22.6366 24.8472 23.0368 24.9999 23.4366 24.9999C23.8363 24.9999 24.2365 24.8472 24.5419 24.5418C25.1527 23.9316 25.1527 22.9414 24.5419 22.3311L14.711 12.5007Z" fill="white"/>
</g>
<defs>
<clipPath id="clip0">
<rect width="25" height="25" fill="white"/>
</clipPath>
</defs>
</svg>
